<svg xmlns="http://www.w3.org/2000/svg" xmlns:xlink="http://www.w3.org/1999/xlink" width="475" height="450" viewBox="0 0 475 450">
  <defs>
    <linearGradient id="linear-gradient" x1="0.5" x2="0.5" y2="1" gradientUnits="objectBoundingBox">
      <stop offset="0" stop-color="#2962ff"/>
      <stop offset="1" stop-color="#4b9bfa"/>
    </linearGradient>
    <filter id="Path_4896" x="109.83" y="346.761" width="44.863" height="13.258" filterUnits="userSpaceOnUse">
      <feOffset dx="1" dy="1" input="SourceAlpha"/>
      <feGaussianBlur result="blur"/>
      <feFlood flood-opacity="0.2"/>
      <feComposite operator="in" in2="blur"/>
      <feComposite in="SourceGraphic"/>
    </filter>
    <filter id="Rectangle_18" x="160.344" y="346.761" width="44.863" height="13.258" filterUnits="userSpaceOnUse">
      <feOffset dx="1" dy="1" input="SourceAlpha"/>
      <feGaussianBlur result="blur-2"/>
      <feFlood flood-opacity="0.2"/>
      <feComposite operator="in" in2="blur-2"/>
      <feComposite in="SourceGraphic"/>
    </filter>
    <filter id="Path_4897" x="110.283" y="272.64" width="98.432" height="18.854" filterUnits="userSpaceOnUse">
      <feOffset dx="2" dy="1" input="SourceAlpha"/>
      <feGaussianBlur result="blur-3"/>
      <feFlood flood-opacity="0.2"/>
      <feComposite operator="in" in2="blur-3"/>
      <feComposite in="SourceGraphic"/>
    </filter>
    <linearGradient id="linear-gradient-2" x1="0.646" y1="0.965" x2="0.71" y2="-0.292" gradientUnits="objectBoundingBox">
      <stop offset="0" stop-color="#2962ff"/>
      <stop offset="0.453" stop-color="#387cfd"/>
      <stop offset="1" stop-color="#4b9bfa"/>
    </linearGradient>
    <clipPath id="clip-laptop_3">
      <rect width="475" height="450"/>
    </clipPath>
  </defs>
  <g id="laptop_3" data-name="laptop – 3" clip-path="url(#clip-laptop_3)">
    <g id="Group_2888" data-name="Group 2888" transform="translate(-458.673 -3952.968)">
      <path id="Path_1" data-name="Path 1" d="M459.927,405.551c0,2.411-89.542,4.366-200,4.366s-200-1.955-200-4.366,89.542-4.367,200-4.367S459.927,403.139,459.927,405.551Z" transform="translate(441 3960.418)" fill="#2d61f0"/>
      <g id="Group_15" data-name="Group 15" transform="translate(539.917 4124.885)">
        <path id="Path_4900" data-name="Path 4900" d="M0,0H322.02V201.068H0Z" transform="translate(0 0)" fill="url(#linear-gradient)"/>
        <g id="Group_12" data-name="Group 12" transform="translate(0 8.055)">
          <rect id="Rectangle_3" data-name="Rectangle 3" width="322.02" height="17.632" fill="#bec8d2"/>
          <g id="Group_6" data-name="Group 6" transform="translate(7.691 5.508)">
            <g id="Path_21" data-name="Path 21" transform="translate(-104.997 -184.583)" fill="none" stroke-miterlimit="10">
              <path d="M118.108,191.2h-4.275a.742.742,0,0,1-.654-.8v-2.758a.894.894,0,0,1,.23-.612l2.137-2.249a.564.564,0,0,1,.85,0l2.138,2.249a.893.893,0,0,1,.229.612v2.758A.741.741,0,0,1,118.108,191.2Z" stroke="none"/>
              <path d="M 117.7619323730469 190.1993103027344 L 117.7619323730469 187.6647186279297 L 115.9705505371094 185.7801361083984 L 114.1789855957031 187.6658172607422 L 114.1789855957031 190.1993103027344 L 117.7619323730469 190.1993103027344 M 118.1077270507812 191.1993103027344 L 113.8331909179688 191.1993103027344 C 113.4725952148438 191.1993103027344 113.1789855957031 190.8387145996094 113.1789855957031 190.3947143554688 L 113.1789855957031 187.6366577148438 C 113.1789855957031 187.4017639160156 113.2634887695312 187.1771850585938 113.4087524414062 187.0246887207031 L 115.5455017089844 184.7756652832031 C 115.6681060791016 184.6468963623047 115.8195495605469 184.58251953125 115.9708633422852 184.58251953125 C 116.1221771240234 184.58251953125 116.2733612060547 184.6468963623047 116.3954467773438 184.7756652832031 L 118.5332260131836 187.0246887207031 C 118.6784973144531 187.1771850585938 118.7619323730469 187.4017639160156 118.7619323730469 187.6366577148438 L 118.7619323730469 190.3947143554688 C 118.7619323730469 190.8387145996094 118.4693603515625 191.1993103027344 118.1077270507812 191.1993103027344 Z" stroke="none" fill="#183f5b"/>
            </g>
            <g id="Group_5" data-name="Group 5" transform="translate(0 1.404)">
              <path id="Path_22" data-name="Path 22" d="M123.94,189.754l2.466-1.589a.341.341,0,0,0,0-.632l-2.466-1.589" transform="translate(-104.672 -185.945)" fill="none" stroke="#183f5b" stroke-linecap="round" stroke-miterlimit="10" stroke-width="1"/>
              <path id="Path_23" data-name="Path 23" d="M107.917,189.754l-2.467-1.589a.341.341,0,0,1,0-.632l2.467-1.589" transform="translate(-105.237 -185.945)" fill="none" stroke="#183f5b" stroke-linecap="round" stroke-miterlimit="10" stroke-width="1"/>
            </g>
          </g>
          <g id="Group_10" data-name="Group 10" transform="translate(37.457 3.339)">
            <g id="Group_7" data-name="Group 7">
              <rect id="Rectangle_4" data-name="Rectangle 4" width="250.962" height="10.955" rx="2.603" fill="#f2f2f2"/>
            </g>
            <rect id="Rectangle_5" data-name="Rectangle 5" width="79.933" height="3.308" transform="translate(85.515 3.823)" fill="#aac4e5"/>
            <g id="Group_8" data-name="Group 8" transform="translate(4.533 3.138)">
              <path id="Path_24" data-name="Path 24" d="M142.523,186.208a2.34,2.34,0,1,1-3.309,0A2.34,2.34,0,0,1,142.523,186.208Z" transform="translate(-138.529 -185.523)" fill="none" stroke="#bec8d2" stroke-miterlimit="10" stroke-width="1"/>
              <line id="Line_1" data-name="Line 1" x2="1.405" y2="1.405" transform="translate(3.993 3.994)" fill="none" stroke="#bec8d2" stroke-linecap="round" stroke-miterlimit="10" stroke-width="1"/>
            </g>
            <g id="Group_9" data-name="Group 9" transform="translate(242.647 2.484)">
              <path id="Path_25" data-name="Path 25" d="M366.222,187.863a2.34,2.34,0,1,1-2.34-2.34" transform="translate(-361.543 -184.869)" fill="none" stroke="#aac4e5" stroke-linecap="round" stroke-miterlimit="10" stroke-width="1"/>
              <path id="Path_26" data-name="Path 26" d="M363.814,184.888l1.245.841-1.245.841Z" transform="translate(-361.474 -184.888)" fill="none" stroke="#aac4e5" stroke-linecap="round" stroke-linejoin="round" stroke-width="1"/>
            </g>
          </g>
          <path id="Path_27" data-name="Path 27" d="M379.494,184.573l.824,2.535h2.665l-2.156,1.567.824,2.535-2.156-1.566-2.156,1.566.824-2.535L376,187.108h2.665Z" transform="translate(-81.001 -179.075)" fill="none" stroke="#183f5b" stroke-linecap="round" stroke-linejoin="round" stroke-width="1"/>
          <g id="Group_11" data-name="Group 11" transform="translate(307.615 6.036)">
            <line id="Line_2" data-name="Line 2" x2="8.705" stroke-width="1" stroke="#183f5b" stroke-linecap="round" stroke-linejoin="round" fill="none"/>
            <line id="Line_3" data-name="Line 3" x2="8.705" transform="translate(0 2.78)" fill="none" stroke="#183f5b" stroke-linecap="round" stroke-linejoin="round" stroke-width="1"/>
            <line id="Line_4" data-name="Line 4" x2="8.705" transform="translate(0 5.56)" fill="none" stroke="#183f5b" stroke-linecap="round" stroke-linejoin="round" stroke-width="1"/>
          </g>
        </g>
        <path id="Path_28" data-name="Path 28" d="M419.792,171.418V372.486H97.772" transform="translate(-97.772 -171.418)" fill="none" stroke="#174159" stroke-miterlimit="10" stroke-width="0.75"/>
        <g id="Group_14" data-name="Group 14" transform="translate(0 0)">
          <rect id="Rectangle_6" data-name="Rectangle 6" width="322.02" height="8.055" fill="#174159"/>
          <g id="Group_13" data-name="Group 13" transform="translate(4.399 2.141)">
            <circle id="Ellipse_1" data-name="Ellipse 1" cx="1.886" cy="1.886" r="1.886" transform="translate(0 0)" fill="#aac4e5"/>
            <circle id="Ellipse_2" data-name="Ellipse 2" cx="1.886" cy="1.886" r="1.886" transform="translate(5.179 0)" fill="#aac4e5"/>
            <path id="Path_29" data-name="Path 29" d="M115.869,175.382a1.886,1.886,0,1,1-1.886-1.886A1.886,1.886,0,0,1,115.869,175.382Z" transform="translate(-101.738 -173.496)" fill="#aac4e5"/>
          </g>
        </g>
      </g>
      <g id="Group_27" data-name="Group 27" transform="translate(567.955 4157.029)">
        <rect id="Rectangle_7" data-name="Rectangle 7" width="108.435" height="12.258" transform="translate(157.205 142.7)" fill="#2d61f0"/>
        <g id="Group_19" data-name="Group 19" transform="translate(0)">
          <g id="Group_17" data-name="Group 17">
            <circle id="Ellipse_3" data-name="Ellipse 3" cx="14.292" cy="14.292" r="14.292" fill="#2d61f0"/>
            <g id="Group_16" data-name="Group 16" transform="translate(35.698 8.293)" opacity="0.8">
              <rect id="Rectangle_8" data-name="Rectangle 8" width="55.879" height="4.85" fill="#34fbe7"/>
              <rect id="Rectangle_9" data-name="Rectangle 9" width="41.076" height="4.85" transform="translate(0 7.148)" fill="#34fbe7"/>
            </g>
          </g>
          <g id="Group_18" data-name="Group 18" transform="translate(167.945 8.293)" opacity="0.8">
            <rect id="Rectangle_10" data-name="Rectangle 10" width="27.939" height="4.85" fill="#34fbe7"/>
            <rect id="Rectangle_11" data-name="Rectangle 11" width="27.939" height="4.85" transform="translate(34.878)" fill="#34fbe7"/>
          </g>
          <line id="Line_5" data-name="Line 5" x2="264.828" transform="translate(0.549 33.956)" fill="none" stroke="#174159" stroke-miterlimit="10" stroke-width="1"/>
        </g>
        <g id="Group_21" data-name="Group 21" transform="translate(0.549 95.408)">
          <path id="Path_4901" data-name="Path 4901" d="M0,0H91.028V7.323H0Z" fill="#34fbe7" opacity="0.8"/>
          <g id="Group_20" data-name="Group 20" transform="translate(0 14.343)" opacity="0.8">
            <rect id="Rectangle_13" data-name="Rectangle 13" width="126.675" height="3.243" fill="#34fbe7"/>
            <rect id="Rectangle_14" data-name="Rectangle 14" width="115.61" height="3.243" transform="translate(0 6.277)" fill="#34fbe7"/>
            <rect id="Rectangle_15" data-name="Rectangle 15" width="106.257" height="3.242" transform="translate(0 12.553)" fill="#34fbe7"/>
            <rect id="Rectangle_16" data-name="Rectangle 16" width="126.675" height="3.242" transform="translate(0 18.83)" fill="#34fbe7"/>
          </g>
        </g>
        <g id="Group_22" data-name="Group 22" transform="translate(0.549 142.7)">
          <g transform="matrix(1, 0, 0, 1, -109.83, -346.76)" filter="url(#Path_4896)">
            <path id="Path_4896-2" data-name="Path 4896" d="M6.129,0h31.6a6.129,6.129,0,0,1,0,12.258H6.129A6.129,6.129,0,0,1,6.129,0Z" transform="translate(109.83 346.76)" fill="#fbc014"/>
          </g>
          <g transform="matrix(1, 0, 0, 1, -109.83, -346.76)" filter="url(#Rectangle_18)">
            <rect id="Rectangle_18-2" data-name="Rectangle 18" width="43.863" height="12.258" rx="5.949" transform="translate(160.34 346.76)" fill="#2d61f0"/>
          </g>
        </g>
        <g id="Group_26" data-name="Group 26" transform="translate(0.549 46.107)">
          <g id="Group_23" data-name="Group 23">
            <rect id="Rectangle_19" data-name="Rectangle 19" width="18.495" height="18.495" fill="#2d61f0"/>
            <line id="Line_6" data-name="Line 6" x2="18.495" y2="18.495" fill="none" stroke="#f2f2f2" stroke-miterlimit="10" stroke-width="0.5"/>
            <line id="Line_7" data-name="Line 7" x1="18.495" y2="18.495" fill="none" stroke="#f2f2f2" stroke-miterlimit="10" stroke-width="0.5"/>
          </g>
          <g id="Group_24" data-name="Group 24" transform="translate(25.902)">
            <rect id="Rectangle_20" data-name="Rectangle 20" width="18.495" height="18.495" fill="#2d61f0"/>
            <line id="Line_8" data-name="Line 8" x2="18.495" y2="18.495" fill="none" stroke="#f2f2f2" stroke-miterlimit="10" stroke-width="0.5"/>
            <line id="Line_9" data-name="Line 9" x1="18.495" y2="18.495" fill="none" stroke="#f2f2f2" stroke-miterlimit="10" stroke-width="0.5"/>
          </g>
          <g id="Group_25" data-name="Group 25" transform="translate(51.804)">
            <rect id="Rectangle_21" data-name="Rectangle 21" width="18.495" height="18.495" fill="#2d61f0"/>
            <line id="Line_10" data-name="Line 10" x2="18.495" y2="18.495" fill="none" stroke="#f2f2f2" stroke-miterlimit="10" stroke-width="0.5"/>
            <line id="Line_11" data-name="Line 11" x1="18.495" y2="18.495" fill="none" stroke="#f2f2f2" stroke-miterlimit="10" stroke-width="0.5"/>
          </g>
        </g>
      </g>
      <g transform="matrix(1, 0, 0, 1, 458.67, 3952.97)" filter="url(#Path_4897)">
        <path id="Path_4897-2" data-name="Path 4897" d="M0,0H96.184V16.325H0Z" transform="translate(110.54 272.64) rotate(0.91)" fill="#2d61f0"/>
      </g>
      <g id="Group_28" data-name="Group 28" transform="translate(764.301 4006.512)">
        <line id="Line_12" data-name="Line 12" y2="80.469" transform="translate(7.652 0)" fill="none" stroke="#bec8d2" stroke-linecap="round" stroke-miterlimit="10" stroke-width="1"/>
        <path id="Path_30" data-name="Path 30" d="M322.528,160.285a1.345,1.345,0,0,0-1.3,1.389,3.606,3.606,0,0,1-2.962,3.556,3.753,3.753,0,0,1-1.292,0,3.153,3.153,0,0,1-1.172-.421,3.623,3.623,0,0,1-1.6-1.93,3.426,3.426,0,0,1,.031-2.553c1.908-3.838,5.714-6.283,5.714-10.125a7.022,7.022,0,1,0-4.811-.1c-.245,2.692-3.384,5.109-4.7,8.734a7.409,7.409,0,0,0,.164,5.256,7.268,7.268,0,0,0,3.4,3.743,7.049,7.049,0,0,0,4.8.6,6.648,6.648,0,0,0,3.875-2.528,6.408,6.408,0,0,0,1.256-4.234l-.008-.131A1.344,1.344,0,0,0,322.528,160.285Zm-4.851-19.626a2.9,2.9,0,0,1,1.663,5.272,2.425,2.425,0,0,0-3.333-.005,2.9,2.9,0,0,1,1.67-5.267Z" transform="translate(-310.025 -61.958)" fill="#bec8d2"/>
      </g>
      <g id="Group_34" data-name="Group 34" transform="translate(678.106 4160.816)">
        <g id="Group_33" data-name="Group 33" transform="translate(0 0)">
          <g id="Group_32" data-name="Group 32" transform="translate(0)">
            <path id="Path_4895" data-name="Path 4895" d="M0,0H179.6V105.95H0Z" transform="matrix(0.991, -0.136, 0.136, 0.991, 0, 24.453)" fill="#f7f7f7"/>
            <path id="Path_33" data-name="Path 33" d="M362.122,250.339l-45.278,59.706-39.15-29.689-40.347,53.2.463,3.368,177.925-24.453-3.3-23.977Z" transform="translate(-223.385 -207.511)" fill="#aac4e5"/>
            <g id="Group_30" data-name="Group 30" transform="translate(0)">
              <path id="Path_34" data-name="Path 34" d="M398.2,213.412l13.3,96.8-169.76,23.331-13.3-96.8L398.2,213.412m3.521-4.643L223.795,233.222l14.426,104.963,177.925-24.453L401.72,208.769Z" transform="translate(-223.795 -208.769)" fill="#2d61f0"/>
            </g>
            <g id="Group_31" data-name="Group 31" transform="translate(64.519 23.848)">
              <circle id="Ellipse_5" data-name="Ellipse 5" cx="14.947" cy="14.947" r="14.947" transform="translate(0 23.295) rotate(-51.193)" fill="#aac4e5"/>
            </g>
          </g>
        </g>
      </g>
      <path id="Path_35" data-name="Path 35" d="M235.265,230.968l-8.051,27.22,9.861-27.469" transform="translate(449.832 3951.646)" fill="none" stroke="#bec8d2" stroke-linecap="round" stroke-linejoin="round" stroke-width="1"/>
      <path id="Path_36" data-name="Path 36" d="M379.766,210.695,400.8,235.987l-22.848-25.54" transform="translate(458.975 3950.529)" fill="none" stroke="#bec8d2" stroke-linecap="round" stroke-linejoin="round" stroke-width="1"/>
      <path id="Path_37" data-name="Path 37" d="M382.227,211.844l-59.483-46.078a3.627,3.627,0,0,0-5.847-.105L236.785,232.73" transform="translate(452.533 3948.42)" fill="none" stroke="#bec8d2" stroke-linecap="round" stroke-linejoin="round" stroke-width="1"/>
      <g id="Group_37" data-name="Group 37" transform="translate(750.608 3994.097)">
        <circle id="Ellipse_6" data-name="Ellipse 6" cx="8.779" cy="8.779" r="8.779" transform="translate(0 12.415) rotate(-45)" fill="none" stroke="#bec8d2" stroke-linecap="round" stroke-miterlimit="10" stroke-width="1"/>
        <circle id="Ellipse_7" data-name="Ellipse 7" cx="3.241" cy="3.241" r="3.241" transform="translate(9.174 9.174)" fill="none" stroke="#bec8d2" stroke-linecap="round" stroke-miterlimit="10" stroke-width="1"/>
      </g>
      <g id="Group_42" data-name="Group 42" transform="translate(784.34 4225.663)">
        <g id="Group_38" data-name="Group 38" transform="translate(45.915 61.742)">
          <path id="Path_38" data-name="Path 38" d="M373.234,329.166c-3.366,15.31-2.066,34.984,5.378,46.477,5.872,9.066,16.323,11.866,25.637,19.036l-.433,4.484,4.1-4.9s-5.164-5.132-20.165-20.621c-3.67-3.79-1.047-18.776-.091-22.521,4.663-6.22-.016-12.722-3.1-21.957Z" transform="translate(-371.477 -329.166)" fill="#0d2e3f"/>
          <path id="Path_39" data-name="Path 39" d="M403.3,392.818l-.433,4.484,4.1-4.9-1.736-1.744A1.987,1.987,0,0,1,403.3,392.818Z" transform="translate(-370.527 -327.305)" fill="#2d80ea"/>
        </g>
        <g id="Group_39" data-name="Group 39" transform="translate(36.639 61.742)">
          <path id="Path_40" data-name="Path 40" d="M369.2,329.166c-9.835,19.406-9.43,31.847,4.805,77.155l-4.546,2.818h6.932s-.3-47.891,2.49-58.807c4.663-6.221,4.733-11.93,1.646-21.166Z" transform="translate(-362.473 -329.166)" fill="#183f5b"/>
          <path id="Path_41" data-name="Path 41" d="M369.257,406.873h6.932v-2.818s-1.491.877-2.386,0Z" transform="translate(-362.267 -326.9)" fill="#2d80ea"/>
        </g>
        <path id="Path_42" data-name="Path 42" d="M379.716,286.078c-1.729,5.292-6.6,7.874-9.143,7.4s-3.858-4.805-2.945-9.667,3.686-7.622,6.25-7.94C377.552,275.414,382.115,278.73,379.716,286.078Z" transform="translate(-325.687 -269.038)" fill="#f2f2f2"/>
        <rect id="Rectangle_25" data-name="Rectangle 25" width="4.773" height="11.981" transform="translate(48.173 18.503)" fill="#f2f2f2"/>
        <path id="Path_43" data-name="Path 43" d="M374.912,296.085c-6.265,1.141-10.479,11.419-11.1,15.1-.368,2.182-.127,4.3,2.3,8.549,3.372,5.911,3.057,10.44,3.057,10.44h15.7c0-4.7,3.019-9.962,4.8-17.284S385.54,294.15,374.912,296.085Z" transform="translate(-325.798 -268.431)" fill="#2d80ea"/>
        <g id="Group_40" data-name="Group 40" transform="translate(54.484 0)">
          <path id="Path_44" data-name="Path 44" d="M379.794,296.864c-.022,0,9.106,1.1,12.856-.24,8.839-3.152,12.673-10.748,12.975-18.578h2.391s3.2,23.121-18.67,31.375Z" transform="translate(-379.794 -268.97)" fill="#2d61f0"/>
          <path id="Path_45" data-name="Path 45" d="M404.909,278.313c-1.595-1.758-.587-3.207-1.218-4.592s.141-2.968,1.875.812l-.72-5.3s2.07,1.036,2.454,9.077Z" transform="translate(-379.078 -269.237)" fill="#fab9af"/>
        </g>
        <g id="Group_41" data-name="Group 41" transform="translate(0 28.771)">
          <path id="Path_46" data-name="Path 46" d="M375.379,297.27c4.69.92,4.116,9.409-1.246,14.325-5.06,4.638-19.339,8.7-38.555,11.181l-.624-2.107a67.318,67.318,0,0,0,20.1-7.654C364.411,307.333,368.613,295.942,375.379,297.27Z" transform="translate(-326.667 -297.163)" fill="#2d61f0"/>
          <path id="Path_47" data-name="Path 47" d="M335.2,319.99c-2.06-.974-3.151.271-4.61.057s-2.18.777,1.806,1.375l-5.482.792s1.293,1.521,8.911-.117Z" transform="translate(-326.91 -296.484)" fill="#fab9af"/>
        </g>
        <path id="Path_48" data-name="Path 48" d="M368.667,276.587c-2.413,4.224,5.508,3.189,5.508,7.329s-8.68,4.91-10.3,10.313c-1.845,6.171,10.744,4.527,8.849,10.931-2.786,9.409-21.21,10.2-14.194,20.167,5.108,7.261,17.569,3.128,16.162,14.989-1.366,11.512,19.656,9.193,21.465-.248,1.2-6.279-10.518-10.1-3.955-14.835,8.032-5.8,18.19-13.574,9.5-20.153-4.393-3.326-16.277-5.387-17.483-10.729s5.815-13.546-2.533-19.007C373.133,269.745,368.667,276.587,368.667,276.587Z" transform="translate(-326.001 -269.119)" fill="#fbc014"/>
      </g>
      <g id="Group_48" data-name="Group 48" transform="translate(593.912 3999.003)">
        <g id="Group_43" data-name="Group 43" transform="translate(17.227 99.279)">
          <path id="Path_49" data-name="Path 49" d="M163.731,155.255s4.1,16.7,12.829,16.7c19.991,0,25.706-7.653,33.706-7.125,4.244.28,14.878,7.125,14.878,7.125h6l-4.216-2.624s-11.507-15.074-19.217-16.007c-9.766-1.183-22.7,8.506-29.636,1.931Z" transform="translate(-163.731 -153.223)" fill="#174159"/>
          <path id="Path_50" data-name="Path 50" d="M223.379,171.482l-1.34-.838s2.349.139,3.127-1.786l4.216,2.624Z" transform="translate(-161.967 -152.75)" fill="#2d80ea"/>
        </g>
        <path id="Path_51" data-name="Path 51" d="M307.651,56.859l-92.825,58.548-13.345,12.717v44.122" transform="translate(-145.362 -56.859)" fill="none" stroke="#bec8d2" stroke-linecap="round" stroke-miterlimit="10" stroke-width="1"/>
        <g id="Group_44" data-name="Group 44" transform="translate(12.37 68.988)">
          <path id="Path_52" data-name="Path 52" d="M199.2,127.815c.828-1.4,2.74-4.155,3.7-2.33.6,1.154.361,3.192-.19,3.395a11.706,11.706,0,0,1-1.978.331Z" transform="translate(-157.801 -123.789)" fill="#fab9af"/>
          <path id="Path_53" data-name="Path 53" d="M161.357,125.084c7.6-4.29,19.921,9.442,23.653,10.151,6.034,1.145,14.639-6.782,15.4-7.4l1.528,1.395s-9.421,13.516-18.331,13.77S151.654,130.558,161.357,125.084Z" transform="translate(-159.017 -123.808)" fill="#2d80ea"/>
          <path id="Path_54" data-name="Path 54" d="M199.2,127.847a3.133,3.133,0,0,1,1.809-2.5c1.443-.775,1.139-1.529,1.623-1.529s.993,1.4-.229,1.9c0,0,.052,2.5-2.108,3.131Z" transform="translate(-157.801 -123.821)" fill="#fab9af"/>
          <path id="Path_55" data-name="Path 55" d="M202.857,125.467c.063.53-.518.448-1.083.424-.761-.033-1.537-.146-1.408.85.2,1.565-.03,2.45.724,2.488s1.274.206,1.767-.055S203.61,126.655,202.857,125.467Z" transform="translate(-157.766 -123.771)" fill="#fab9af"/>
        </g>
        <g id="Group_46" data-name="Group 46" transform="translate(15.588 97)">
          <g id="Group_45" data-name="Group 45">
            <path id="Path_56" data-name="Path 56" d="M178.86,151.011c9.821,19.375,17.411,39.242,35.6,56.436l5.128-1.491-4.632,5.144s-38.037-22.255-48.359-35.9c-4.657-6.21-5.824-10.67-2.743-19.891Z" transform="translate(-162.14 -151.011)" fill="#2e546a"/>
          </g>
          <path id="Path_57" data-name="Path 57" d="M213.467,209.487l4.632-5.144-5.128,1.491a2.252,2.252,0,0,1-1.6,2.4Z" transform="translate(-160.651 -149.397)" fill="#2d80ea"/>
        </g>
        <path id="Path_58" data-name="Path 58" d="M157.322,116.132c2.833,4.225,7.76,5.286,9.875,4.236s2.2-5.182.193-9.231-5.134-5.788-7.468-5.431C156.578,106.216,153.389,110.265,157.322,116.132Z" transform="translate(-146.753 -55.383)" fill="#fab9af"/>
        <path id="Path_59" data-name="Path 59" d="M159.084,128.218l6.721-1.9-2.972-10.536-7.279-4.2Z" transform="translate(-146.751 -55.203)" fill="#fab9af"/>
        <path id="Path_60" data-name="Path 60" d="M164.255,123.7c-7.119.9-13.246,2.923-10.223,26.817,2.835,22.409,10.223,22.331,10.223,22.331s22.428,1.582,26.963-15.34a35.143,35.143,0,0,1-12.631-18.844C175.6,126.528,169.756,123.008,164.255,123.7Z" transform="translate(-146.821 -54.839)" fill="#2d61f0"/>
        <g id="Group_47" data-name="Group 47" transform="translate(11.929 55.904)">
          <path id="Path_61" data-name="Path 61" d="M164.094,124l49.3-10.343,1.164,2.672s-33.948,22.023-45.806,22.786S155.513,126.581,164.094,124Z" transform="translate(-158.589 -111.044)" fill="#428dec"/>
          <path id="Path_62" data-name="Path 62" d="M211.781,113.738s2.052-2.8,3.232-2.608,2.737,2.88,2.077,3.917-4.145,1.363-4.145,1.363Z" transform="translate(-156.98 -111.121)" fill="#fab9af"/>
        </g>
        <path id="Path_63" data-name="Path 63" d="M158.217,123.343a5.672,5.672,0,0,0,3.493-5.577s-1.731.9-2.233-2.855c-.229-1.719,1.46-2.064,2.238-.171,1.087.4,2.553-.342,2.328-2.335-.363-3.226,3.659-2.684,3.8-6.5.188-4.942-9.671-11.441-11.544-6.933-1.529,3.684-1.079,5.9-5.748,5.942C141.962,105,150.76,125.067,158.217,123.343Z" transform="translate(-147.01 -55.631)" fill="#174159"/>
      </g>
      <g id="Group_55" data-name="Group 55" transform="translate(538.017 4222.144)">
        <g id="Group_53" data-name="Group 53" transform="translate(0 3.519)">
          <g id="Group_50" data-name="Group 50" transform="translate(0.514 61.742)">
            <path id="Path_64" data-name="Path 64" d="M131.112,329.166c3.366,15.31,2.066,34.984-5.378,46.477-5.872,9.066-16.323,11.866-25.636,19.036l.432,4.484-4.1-4.9s5.164-5.132,20.165-20.621c3.671-3.79,1.047-18.776.092-22.521-4.664-6.22.016-12.722,3.1-21.957Z" transform="translate(-96.426 -329.166)" fill="#0d2e3f"/>
            <path id="Path_65" data-name="Path 65" d="M100.1,392.818l.432,4.484-4.1-4.9,1.736-1.744A1.988,1.988,0,0,0,100.1,392.818Z" transform="translate(-96.426 -327.305)" fill="#2d80ea"/>
          </g>
          <g id="Group_51" data-name="Group 51" transform="translate(26.056 61.742)">
            <path id="Path_66" data-name="Path 66" d="M134.665,329.166c9.835,19.406,9.43,31.847-4.805,77.155l4.545,2.818h-6.931s.3-47.891-2.49-58.807c-4.663-6.221-4.733-11.93-1.646-21.166Z" transform="translate(-121.218 -329.166)" fill="#183f5b"/>
            <path id="Path_67" data-name="Path 67" d="M134.221,406.873H127.29v-2.818s1.491.877,2.386,0Z" transform="translate(-121.035 -326.9)" fill="#2d80ea"/>
          </g>
          <path id="Path_68" data-name="Path 68" d="M123.944,286.078c1.728,5.292,6.6,7.874,9.141,7.4s3.859-4.805,2.947-9.667-3.687-7.622-6.252-7.94C126.106,275.414,121.543,278.73,123.944,286.078Z" transform="translate(-95.1 -269.038)" fill="#fab9af"/>
          <rect id="Rectangle_26" data-name="Rectangle 26" width="8.378" height="11.981" transform="translate(34.698 30.484) rotate(180)" fill="#fab9af"/>
          <g id="Group_52" data-name="Group 52">
            <path id="Path_69" data-name="Path 69" d="M124.315,296.864c.022,0-9.105,1.1-12.857-.24-8.839-3.152-12.673-10.748-12.975-18.578H96.092s-3.2,23.121,18.67,31.375Z" transform="translate(-95.927 -268.97)" fill="#2d61f0"/>
            <path id="Path_70" data-name="Path 70" d="M98.478,278.313c1.6-1.758.587-3.207,1.218-4.592s-.141-2.968-1.875.812l0-5.3s-1.352,1.036-1.736,9.077Z" transform="translate(-95.923 -269.237)" fill="#fab9af"/>
          </g>
        </g>
        <path id="Path_71" data-name="Path 71" d="M133.653,297.994c-5.822-2.888-8.254-1.683-17.984-1.268s-1.461,23.894-1.461,50.32c0,0,8.459,4.911,29.517,0C143.725,347.045,142.9,302.581,133.653,297.994Z" transform="translate(-95.474 -264.904)" fill="url(#linear-gradient-2)"/>
        <path id="Path_72" data-name="Path 72" d="M129.474,289.673c1.446,2.544-6.858,4.766-9.067,2.209s-9.658-4.561-4.186-14.532c2.382-4.34,3.286-10.705,6.818-11.317,8.479-1.47,12.555,5.04,12.364,8.875-.265,5.3-2.327,8.484-4.463,9.533C129.491,285.154,127.227,285.72,129.474,289.673Z" transform="translate(-95.373 -265.821)" fill="#174159"/>
        <g id="Group_54" data-name="Group 54" transform="translate(28.768 20.481)">
          <path id="Path_73" data-name="Path 73" d="M128.459,296.449c10.1-.049,17.571,5.5,24.941,6.195,8.578.81,17.115-5.017,18.833-9.613l3.854-.669s-5.844,12.342-22.313,17.753c-8.277,2.719-18.4,3.139-24.533.315S121.378,296.482,128.459,296.449Z" transform="translate(-123.851 -285.499)" fill="#2d61f0"/>
          <path id="Path_74" data-name="Path 74" d="M170.825,293.232c-1.215-1.806.632-3.66.887-5.013s.953-2.352,1.625-2.494c1.146-.243.8,1.354.434,2.882a.2.2,0,0,0,.272.232,11.269,11.269,0,0,1,4.949-1.177c.6.061.975.719-1.462,1.938a5.29,5.29,0,0,0-2.851,2.964Z" transform="translate(-122.442 -285.7)" fill="#fab9af"/>
        </g>
      </g>
      <g id="Group_62" data-name="Group 62" transform="translate(617.633 4320.618)">
        <g id="Group_57" data-name="Group 57" transform="translate(1.03 1.03)" opacity="0.2">
          <rect id="Rectangle_27" data-name="Rectangle 27" width="114.619" height="30.524"/>
          <rect id="Rectangle_28" data-name="Rectangle 28" width="18.495" height="18.495" transform="translate(7.7 6.014)"/>
          <line id="Line_13" data-name="Line 13" x2="18.495" y2="18.495" transform="translate(7.7 6.014)" fill="none" stroke="#000" stroke-miterlimit="10" stroke-width="0.5"/>
          <line id="Line_14" data-name="Line 14" x1="18.495" y2="18.495" transform="translate(7.7 6.014)" fill="none" stroke="#000" stroke-miterlimit="10" stroke-width="0.5"/>
          <rect id="Rectangle_29" data-name="Rectangle 29" width="69.077" height="2.175" transform="translate(32.634 10.107)"/>
          <rect id="Rectangle_30" data-name="Rectangle 30" width="69.077" height="2.175" transform="translate(32.634 18.242)"/>
          <rect id="Rectangle_31" data-name="Rectangle 31" width="61.627" height="2.175" transform="translate(32.634 14.174)"/>
        </g>
        <g id="Group_61" data-name="Group 61">
          <g id="Group_60" data-name="Group 60">
            <rect id="Rectangle_32" data-name="Rectangle 32" width="114.619" height="30.524" fill="#2d61f0"/>
            <g id="Group_59" data-name="Group 59" transform="translate(7.7 6.014)">
              <g id="Group_58" data-name="Group 58" opacity="0.8">
                <path id="Path_4898" data-name="Path 4898" d="M0,0H18.495V18.5H0Z" fill="#34fbe7"/>
                <line id="Line_15" data-name="Line 15" x2="18.495" y2="18.495" fill="none" stroke="#2d61f0" stroke-miterlimit="10" stroke-width="0.5"/>
                <path id="Path_4899" data-name="Path 4899" d="M18.495,0,0,18.5" fill="none" stroke="#2d61f0" stroke-width="0.5"/>
              </g>
              <rect id="Rectangle_34" data-name="Rectangle 34" width="69.077" height="2.175" transform="translate(24.935 4.092)" fill="#34fbe7" opacity="0.8"/>
              <rect id="Rectangle_35" data-name="Rectangle 35" width="69.077" height="2.175" transform="translate(24.935 12.227)" fill="#34fbe7" opacity="0.8"/>
              <rect id="Rectangle_36" data-name="Rectangle 36" width="61.627" height="2.175" transform="translate(24.935 8.16)" fill="#34fbe7" opacity="0.8"/>
            </g>
          </g>
        </g>
      </g>
      <circle id="Ellipse_8" data-name="Ellipse 8" cx="3.007" cy="3.007" r="3.007" transform="translate(701.744 4098.351)" fill="#fff" stroke="#bec8d2" stroke-miterlimit="10" stroke-width="1"/>
      <circle id="Ellipse_9" data-name="Ellipse 9" cx="5.901" cy="5.901" r="5.901" transform="translate(687.735 4075.298)" fill="#fff" stroke="#bec8d2" stroke-miterlimit="10" stroke-width="1"/>
      <circle id="Ellipse_10" data-name="Ellipse 10" cx="3.378" cy="3.378" r="3.378" transform="translate(720.589 4083.121)" fill="#fff" stroke="#bec8d2" stroke-miterlimit="10" stroke-width="1"/>
      <g id="Group_2725" data-name="Group 2725" transform="translate(597.81 4333.763)">
        <g id="Group_63" data-name="Group 63" transform="translate(1.03 1.03)" opacity="0.2">
          <rect id="Rectangle_37" data-name="Rectangle 37" width="114.618" height="30.524"/>
          <rect id="Rectangle_38" data-name="Rectangle 38" width="18.495" height="18.495" transform="translate(7.7 6.014)"/>
          <line id="Line_17" data-name="Line 17" x2="18.495" y2="18.495" transform="translate(7.7 6.014)" fill="none" stroke="#000" stroke-miterlimit="10" stroke-width="0.5"/>
          <line id="Line_18" data-name="Line 18" x1="18.495" y2="18.495" transform="translate(7.7 6.014)" fill="none" stroke="#000" stroke-miterlimit="10" stroke-width="0.5"/>
          <rect id="Rectangle_39" data-name="Rectangle 39" width="69.077" height="2.175" transform="translate(32.634 10.107)"/>
          <rect id="Rectangle_40" data-name="Rectangle 40" width="69.077" height="2.175" transform="translate(32.634 18.242)"/>
          <rect id="Rectangle_41" data-name="Rectangle 41" width="61.627" height="2.175" transform="translate(32.634 14.174)"/>
        </g>
        <g id="Group_67" data-name="Group 67" transform="translate(0 0)">
          <g id="Group_66" data-name="Group 66">
            <rect id="Rectangle_42" data-name="Rectangle 42" width="114.618" height="30.524" fill="#d6e4f5"/>
            <g id="Group_65" data-name="Group 65" transform="translate(7.7 6.014)">
              <g id="Group_64" data-name="Group 64">
                <rect id="Rectangle_43" data-name="Rectangle 43" width="18.495" height="18.495" fill="#2d61f0"/>
                <line id="Line_19" data-name="Line 19" x2="18.495" y2="18.495" fill="none" stroke="#fff" stroke-miterlimit="10" stroke-width="0.5"/>
                <path id="Path_4898-2" data-name="Path 4898" d="M18.5,0,0,18.495" fill="none" stroke="#fff" stroke-width="0.5"/>
              </g>
              <rect id="Rectangle_44" data-name="Rectangle 44" width="69.077" height="2.175" transform="translate(24.935 4.092)" fill="#2d61f0"/>
              <rect id="Rectangle_45" data-name="Rectangle 45" width="69.077" height="2.175" transform="translate(24.935 12.227)" fill="#2d61f0"/>
              <rect id="Rectangle_46" data-name="Rectangle 46" width="61.627" height="2.175" transform="translate(24.935 8.16)" fill="#2d61f0"/>
            </g>
          </g>
        </g>
      </g>
    </g>
    <g id="noun_photoshop_622609" transform="translate(210.234 228)">
      <g id="Group_2288" data-name="Group 2288" transform="translate(12.766 13)">
        <g id="Group_2287" data-name="Group 2287" transform="translate(0 0)">
          <g id="Group_2285" data-name="Group 2285">
            <path id="Path_4694" data-name="Path 4694" d="M57.084,62.057H17.5a4.744,4.744,0,0,1-4.738-4.738V17.738A4.744,4.744,0,0,1,17.5,13h39.58a4.744,4.744,0,0,1,4.738,4.738v39.58A4.744,4.744,0,0,1,57.084,62.057ZM17.5,15.787a1.953,1.953,0,0,0-1.951,1.951v39.58A1.953,1.953,0,0,0,17.5,59.27h39.58a1.953,1.953,0,0,0,1.951-1.951V17.738a1.953,1.953,0,0,0-1.951-1.951Z" transform="translate(-12.766 -13)" fill="url(#linear-gradient)"/>
          </g>
          <g id="Group_2286" data-name="Group 2286" transform="translate(13.996 13.841)">
            <path id="Path_4695" data-name="Path 4695" d="M62.979,63.018a27.865,27.865,0,0,1,4.618-.36,7.655,7.655,0,0,1,5.227,1.549,5.1,5.1,0,0,1,1.632,3.9,5.487,5.487,0,0,1-1.438,3.982,7.767,7.767,0,0,1-5.7,2.046,8.281,8.281,0,0,1-1.936-.166v7.466H62.979Zm2.406,8.987a8.1,8.1,0,0,0,1.991.193c2.9,0,4.673-1.438,4.673-3.955,0-2.489-1.77-3.678-4.4-3.678a10.107,10.107,0,0,0-2.267.194v7.246Z" transform="translate(-62.979 -62.658)" fill="url(#linear-gradient)"/>
            <path id="Path_4696" data-name="Path 4696" d="M110.589,92.212a6.873,6.873,0,0,0,3.236.94c1.742,0,2.572-.857,2.572-1.991,0-1.161-.691-1.77-2.461-2.433-2.433-.885-3.567-2.185-3.567-3.789,0-2.157,1.77-3.927,4.618-3.927a6.214,6.214,0,0,1,3.263.829l-.581,1.77a5.189,5.189,0,0,0-2.738-.8c-1.438,0-2.212.83-2.212,1.825,0,1.106.774,1.6,2.516,2.3,2.3.857,3.512,2.019,3.512,4.01,0,2.378-1.853,4.037-4.978,4.037a7.631,7.631,0,0,1-3.761-.94Z" transform="translate(-96.9 -75.897)" fill="url(#linear-gradient)"/>
          </g>
        </g>
      </g>
    </g>
  </g>
</svg>
